<svg width="418" height="27" viewBox="0 0 418 27" fill="none" xmlns="http://www.w3.org/2000/svg">
<path d="M12.2723 12.5551C13.1692 12.8658 13.1692 14.1342 12.2723 14.4449L1.32733 18.2364C0.677703 18.4614 -4.22912e-07 17.979 -3.9286e-07 17.2915L-6.14019e-08 9.70857C-3.13504e-08 9.02108 0.677704 8.53863 1.32733 8.76366L12.2723 12.5551Z" fill="#469E84"/>
<path d="M24.4766 7.31738V20H26.6035V15.7549H28.8623C31.499 15.7549 33.1953 14.1025 33.1953 11.5449C33.1953 8.96973 31.5342 7.31738 28.9502 7.31738H24.4766ZM26.6035 9.09277H28.4229C30.1367 9.09277 31.042 9.92773 31.042 11.5361C31.042 13.1445 30.1367 13.9795 28.4229 13.9795H26.6035V9.09277ZM36.7243 23.4541C38.8512 23.4541 39.862 22.6455 40.697 20.2197L44.1335 10.376H41.9626L39.6071 18.0576H39.4753L37.1198 10.376H34.8786L38.3327 20.0703L38.2009 20.501C37.902 21.4062 37.3835 21.7666 36.443 21.7666C36.3024 21.7666 35.9948 21.7578 35.9069 21.7402V23.4365C36.0036 23.4453 36.3903 23.4541 36.7243 23.4541ZM48.6029 7.68652V10.4375H46.0716V12.0898H48.6029V17.0293C48.6029 19.165 49.6488 20.0264 52.18 20.0264C52.4701 20.0264 54.0873 20 54.2455 19.9736V18.3389C54.0785 18.3564 52.6898 18.3652 52.3382 18.3652C51.2484 18.3652 50.642 17.8906 50.642 17.0381V12.0898H54.3246V10.4375H50.6068V7.68652H48.6029ZM57.2295 20H59.2686V14.4189C59.2686 12.96 60.1827 11.9932 61.5713 11.9932C62.8985 11.9932 63.5401 12.7402 63.5401 14.2783V20H65.5879V13.7773C65.5879 11.4658 64.4454 10.2002 62.3448 10.2002C60.9209 10.2002 59.8311 10.8682 59.3477 12.0371H59.2159V6.6582H57.2295V20ZM72.3513 20.1934C75.0056 20.1934 76.6843 18.541 76.6843 15.9219V14.4541C76.6843 11.835 75.0056 10.1826 72.3513 10.1826C69.697 10.1826 68.0183 11.835 68.0183 14.4541V15.9219C68.0183 18.541 69.697 20.1934 72.3513 20.1934ZM72.3513 11.8789C73.7751 11.8789 74.6628 12.9072 74.6628 14.5684V15.8076C74.6628 17.4688 73.7751 18.4971 72.3513 18.4971C70.9275 18.4971 70.0398 17.4688 70.0398 15.8076V14.5684C70.0398 12.9072 70.9275 11.8789 72.3513 11.8789ZM79.141 20H81.1889V14.3926C81.1889 12.9336 82.0854 11.9756 83.4564 11.9756C84.7748 11.9756 85.4076 12.7139 85.4076 14.2607V20H87.4555V13.7598C87.4555 11.4307 86.3217 10.1826 84.2299 10.1826C82.8148 10.1826 81.7514 10.8418 81.2592 12.0195H81.1186V10.376H79.141V20Z" fill="#469E84"/>
<path d="M125.272 12.5551C126.169 12.8658 126.169 14.1342 125.272 14.4449L114.327 18.2364C113.678 18.4614 113 17.979 113 17.2915L113 9.70857C113 9.02108 113.678 8.53863 114.327 8.76366L125.272 12.5551Z" fill="#469E84"/>
<path d="M141.194 20.2549C143.743 20.2549 145.272 18.7432 145.272 16.1768V7.31738H138.663V9.14551H143.146V16.1416C143.146 17.5479 142.434 18.3213 141.168 18.3213C140.034 18.3213 139.243 17.5918 139.208 16.4844H137.151C137.16 18.7607 138.769 20.2549 141.194 20.2549ZM151.341 20.1582C152.651 20.1582 153.679 19.6133 154.145 18.6553H154.33V20H156.272V13.4434C156.272 11.3867 154.919 10.2178 152.537 10.2178C150.375 10.2178 148.819 11.3164 148.643 12.9775H150.647C150.858 12.2744 151.544 11.8701 152.484 11.8701C153.609 11.8701 154.251 12.4326 154.251 13.4258V14.2344L151.842 14.375C149.54 14.5156 148.292 15.5352 148.292 17.2578C148.292 18.998 149.513 20.1582 151.341 20.1582ZM152.001 18.4883C150.972 18.4883 150.322 17.9697 150.322 17.1348C150.322 16.2822 150.946 15.7988 152.15 15.7285L154.251 15.6143V16.4932C154.251 17.6533 153.301 18.4883 152.001 18.4883ZM158.887 10.376L162.315 20H164.618L168.028 10.376H165.857L163.554 17.9697H163.413L161.084 10.376H158.887ZM173.235 20.1582C174.545 20.1582 175.573 19.6133 176.039 18.6553H176.224V20H178.166V13.4434C178.166 11.3867 176.813 10.2178 174.431 10.2178C172.269 10.2178 170.713 11.3164 170.537 12.9775H172.541C172.752 12.2744 173.438 11.8701 174.378 11.8701C175.503 11.8701 176.145 12.4326 176.145 13.4258V14.2344L173.736 14.375C171.434 14.5156 170.186 15.5352 170.186 17.2578C170.186 18.998 171.407 20.1582 173.235 20.1582ZM173.895 18.4883C172.866 18.4883 172.216 17.9697 172.216 17.1348C172.216 16.2822 172.84 15.7988 174.044 15.7285L176.145 15.6143V16.4932C176.145 17.6533 175.195 18.4883 173.895 18.4883ZM181.607 13.1006C181.607 14.5332 182.504 15.4473 184.279 15.8428L185.72 16.1592C186.819 16.3965 187.223 16.7217 187.223 17.3545C187.223 18.1016 186.52 18.5938 185.404 18.5938C184.314 18.5938 183.585 18.1631 183.409 17.4072H181.379C181.519 19.1475 183.013 20.1934 185.369 20.1934C187.786 20.1934 189.324 18.9893 189.324 17.1172C189.324 15.6758 188.471 14.8584 186.547 14.4453L185.114 14.1377C184.068 13.9092 183.629 13.5576 183.629 12.9424C183.629 12.2217 184.305 11.7471 185.334 11.7471C186.327 11.7471 187.021 12.1953 187.162 12.916H189.095C188.964 11.1846 187.566 10.165 185.36 10.165C183.084 10.165 181.607 11.3076 181.607 13.1006ZM200.517 13.584C200.288 11.3779 198.838 10.1562 196.483 10.1562C193.732 10.1562 192.176 11.7646 192.176 14.6211V15.7285C192.176 18.5938 193.732 20.1934 196.483 20.1934C198.829 20.1934 200.297 18.9805 200.517 16.8271H198.513C198.337 17.8906 197.59 18.4707 196.465 18.4707C195.024 18.4707 194.233 17.4336 194.233 15.5439V14.8057C194.233 12.916 195.024 11.8789 196.465 11.8789C197.581 11.8789 198.346 12.4854 198.513 13.584H200.517ZM206.982 15.7109C206.982 13.4873 208.15 12.2744 210.374 12.2744C210.901 12.2744 211.534 12.3799 211.965 12.5469V10.3232C211.631 10.1914 211.13 10.1211 210.585 10.1211C208.757 10.1211 207.685 10.9824 207.289 12.8369H206.99V10.376H202.956V11.9053H205.013V18.4707H203.141V20H209.847V18.4707H206.982V15.7109ZM218.342 8.24023C219.22 8.24023 219.836 7.66895 219.836 6.84277C219.836 6.0166 219.22 5.44531 218.342 5.44531C217.471 5.44531 216.856 6.0166 216.856 6.84277C216.856 7.66895 217.471 8.24023 218.342 8.24023ZM222.428 20V18.3652H219.405V10.376H214.343V12.0107H217.41V18.3652H214.237V20H222.428ZM230.027 10.2178C228.638 10.2178 227.663 10.833 227.258 11.958H227.082V10.376H225.008V23.2256H227.118V18.4268H227.293C227.654 19.5342 228.638 20.167 230.027 20.167C232.242 20.167 233.613 18.6113 233.613 16.0449V14.3311C233.613 11.7734 232.242 10.2178 230.027 10.2178ZM229.297 12.0107C230.677 12.0107 231.53 12.9512 231.53 14.4629V15.9746C231.53 17.4775 230.677 18.4268 229.297 18.4268C227.926 18.4268 227.074 17.4863 227.074 15.9746V14.4629C227.074 12.9512 227.926 12.0107 229.297 12.0107ZM238.232 7.68652V10.4375H235.7V12.0898H238.232V17.0293C238.232 19.165 239.277 20.0264 241.809 20.0264C242.099 20.0264 243.716 20 243.874 19.9736V18.3389C243.707 18.3564 242.318 18.3652 241.967 18.3652C240.877 18.3652 240.271 17.8906 240.271 17.0381V12.0898H243.953V10.4375H240.235V7.68652H238.232Z" fill="#469E84"/>
<path d="M282.272 12.5551C283.169 12.8658 283.169 14.1342 282.272 14.4449L271.327 18.2364C270.678 18.4614 270 17.979 270 17.2915L270 9.70857C270 9.02108 270.678 8.53863 271.327 8.76366L282.272 12.5551Z" fill="#469E84"/>
<path d="M302.967 20V7.31738H300.875V12.6172H296.252V7.31738H294.16V20H296.252V14.4717H300.875V20H302.967ZM310.574 20V9.17188H314.283V7.31738H304.738V9.17188H308.447V20H310.574ZM317.592 15.5352L317.364 10.4375H317.522L319.702 17.0205H321.213L323.393 10.4375H323.551L323.323 15.5352V20H325.142V7.31738H322.874L320.528 14.832H320.396L318.032 7.31738H315.773V20H317.592V15.5352ZM335.816 18.1104H330.086V7.31738H327.985V20H335.816V18.1104Z" fill="#469E84"/>
<path d="M373.272 12.5551C374.169 12.8658 374.169 14.1342 373.272 14.4449L362.327 18.2364C361.678 18.4614 361 17.979 361 17.2915L361 9.70857C361 9.02108 361.678 8.53863 362.327 8.76366L373.272 12.5551Z" fill="#469E84"/>
<path d="M389.845 18.3389C388.087 18.3389 387.173 17.1523 387.173 14.8848V12.4326C387.173 10.165 388.087 8.97852 389.818 8.97852C391.242 8.97852 392.218 10.0332 392.253 11.6328H394.406C394.371 8.75879 392.675 7.0625 389.854 7.0625C386.777 7.0625 384.976 9.04004 384.976 12.4326V14.8848C384.976 18.2773 386.777 20.2549 389.854 20.2549C392.622 20.2549 394.406 18.541 394.406 15.8428H392.253C392.227 17.3896 391.312 18.3389 389.845 18.3389ZM395.931 16.5195C396.037 18.8398 397.803 20.2549 400.581 20.2549C403.42 20.2549 405.177 18.7695 405.177 16.3613C405.177 14.4365 404.123 13.3467 401.671 12.7754L400.449 12.4854C398.964 12.1426 398.348 11.5889 398.348 10.6133C398.348 9.51465 399.201 8.85547 400.607 8.85547C401.943 8.85547 402.813 9.54102 402.927 10.7012H404.949C404.87 8.50391 403.138 7.0625 400.59 7.0625C397.926 7.0625 396.221 8.52148 396.221 10.7979C396.221 12.6611 397.329 13.8301 399.649 14.3838L400.871 14.6738C402.435 15.043 403.068 15.5879 403.068 16.5459C403.068 17.7148 402.11 18.4619 400.616 18.4619C399.069 18.4619 398.085 17.7412 397.962 16.5195H395.931ZM406.878 16.5195C406.984 18.8398 408.75 20.2549 411.528 20.2549C414.367 20.2549 416.124 18.7695 416.124 16.3613C416.124 14.4365 415.07 13.3467 412.618 12.7754L411.396 12.4854C409.911 12.1426 409.295 11.5889 409.295 10.6133C409.295 9.51465 410.148 8.85547 411.554 8.85547C412.89 8.85547 413.76 9.54102 413.874 10.7012H415.896C415.817 8.50391 414.085 7.0625 411.536 7.0625C408.873 7.0625 407.168 8.52148 407.168 10.7979C407.168 12.6611 408.276 13.8301 410.596 14.3838L411.818 14.6738C413.382 15.043 414.015 15.5879 414.015 16.5459C414.015 17.7148 413.057 18.4619 411.563 18.4619C410.016 18.4619 409.032 17.7412 408.909 16.5195H406.878Z" fill="#469E84"/>
</svg>
