<svg width="40" height="38" viewBox="0 0 40 38" fill="none" xmlns="http://www.w3.org/2000/svg">
<g clip-path="url(#clip0_21_6354)">
<path fill-rule="evenodd" clip-rule="evenodd" d="M19.2942 0C8.63968 0 0 8.64078 0 19.3C0 27.8274 5.52836 35.0619 13.1946 37.6139C14.1588 37.7925 14.5129 37.1952 14.5129 36.6854C14.5129 36.2253 14.4949 34.7048 14.4867 33.0921C9.11891 34.2596 7.98627 30.815 7.98627 30.815C7.10861 28.5841 5.84402 27.9911 5.84402 27.9911C4.09354 26.7931 5.97597 26.8177 5.97597 26.8177C7.91349 26.9539 8.93369 28.8066 8.93369 28.8066C10.6545 31.7572 13.4473 30.9041 14.5483 30.4111C14.7214 29.1636 15.2215 28.3123 15.7733 27.8303C11.4878 27.3422 6.98271 25.6873 6.98271 18.2921C6.98271 16.1851 7.73644 14.4633 8.97077 13.1117C8.77042 12.6255 8.11005 10.6626 9.15765 8.00413C9.15765 8.00413 10.7778 7.4854 14.4649 9.98249C16.0039 9.55473 17.6545 9.3404 19.2942 9.33313C20.9339 9.3404 22.5857 9.55473 24.1277 9.98249C27.8104 7.4854 29.4283 8.00413 29.4283 8.00413C30.4785 10.6626 29.8178 12.6255 29.6175 13.1117C30.8545 14.4633 31.6031 16.1849 31.6031 18.2921C31.6031 25.7048 27.0895 27.3372 22.7932 27.8149C23.4852 28.4138 24.1018 29.5884 24.1018 31.3889C24.1018 33.9713 24.0794 36.0497 24.0794 36.6854C24.0794 37.199 24.4267 37.8008 25.4048 37.6113C33.0668 35.0564 38.5882 27.8246 38.5882 19.3C38.5882 8.64078 29.9498 0 19.2942 0Z" fill="white"/>
<path d="M7.23473 27.488C7.19267 27.5841 7.04273 27.613 6.90647 27.5471C6.76751 27.4839 6.68939 27.3527 6.73446 27.2561C6.77577 27.1571 6.9257 27.1295 7.06437 27.196C7.20363 27.259 7.28295 27.3914 7.23473 27.488ZM8.17699 28.3378C8.08564 28.4235 7.90702 28.3837 7.78578 28.2484C7.66049 28.1134 7.63705 27.933 7.72974 27.8459C7.82394 27.7604 7.99716 27.8004 8.12275 27.9355C8.24805 28.0721 8.27238 28.2514 8.17684 28.338L8.17699 28.3378ZM8.82343 29.4251C8.70595 29.5076 8.51396 29.4303 8.39542 29.2581C8.27809 29.086 8.27809 28.8795 8.39798 28.7967C8.51696 28.714 8.70595 28.7884 8.82614 28.9592C8.94332 29.1343 8.94332 29.3409 8.82328 29.4253L8.82343 29.4251ZM9.91652 30.6845C9.81151 30.8014 9.58796 30.7702 9.42421 30.6104C9.25685 30.4543 9.21013 30.2327 9.31544 30.1156C9.42166 29.9984 9.64656 30.0314 9.81151 30.1898C9.97782 30.3456 10.0286 30.5688 9.91667 30.6845H9.91652ZM11.3293 31.1097C11.2832 31.2613 11.0678 31.3302 10.8508 31.2658C10.6342 31.1995 10.4924 31.0218 10.5361 30.8686C10.5812 30.7159 10.7975 30.6441 11.0161 30.7131C11.2324 30.7791 11.3745 30.9554 11.3295 31.1097H11.3293ZM12.9374 31.29C12.9428 31.4497 12.7588 31.5822 12.531 31.585C12.3019 31.5901 12.1167 31.4608 12.1143 31.3038C12.1143 31.1425 12.2941 31.0113 12.523 31.0075C12.7508 31.003 12.9374 31.1313 12.9374 31.29ZM14.5169 31.2288C14.5443 31.3846 14.3859 31.5446 14.1598 31.5872C13.9375 31.6282 13.7317 31.532 13.7033 31.3776C13.6756 31.2178 13.837 31.0579 14.0589 31.0165C14.2854 30.9767 14.4881 31.0704 14.5169 31.2288Z" fill="white"/>
</g>
<defs>
<clipPath id="clip0_21_6354">
<rect width="40" height="37.6471" fill="white"/>
</clipPath>
</defs>
</svg>
