<svg width="80" height="136" viewBox="0 0 80 136" fill="none" xmlns="http://www.w3.org/2000/svg">
<g clip-path="url(#clip0_21_6355)">
<path fill-rule="evenodd" clip-rule="evenodd" d="M39.2942 20C28.6397 20 20 28.6408 20 39.3C20 47.8274 25.5284 55.0619 33.1946 57.6139C34.1588 57.7925 34.5129 57.1952 34.5129 56.6854C34.5129 56.2253 34.4949 54.7048 34.4867 53.0921C29.1189 54.2596 27.9863 50.815 27.9863 50.815C27.1086 48.5841 25.844 47.9911 25.844 47.9911C24.0935 46.7931 25.976 46.8177 25.976 46.8177C27.9135 46.9539 28.9337 48.8066 28.9337 48.8066C30.6545 51.7572 33.4473 50.9041 34.5483 50.4111C34.7214 49.1636 35.2215 48.3123 35.7733 47.8303C31.4878 47.3422 26.9827 45.6873 26.9827 38.2921C26.9827 36.1851 27.7364 34.4633 28.9708 33.1117C28.7704 32.6255 28.1101 30.6626 29.1576 28.0041C29.1576 28.0041 30.7778 27.4854 34.4649 29.9825C36.0039 29.5547 37.6545 29.3404 39.2942 29.3331C40.9339 29.3404 42.5857 29.5547 44.1277 29.9825C47.8104 27.4854 49.4283 28.0041 49.4283 28.0041C50.4785 30.6626 49.8178 32.6255 49.6175 33.1117C50.8545 34.4633 51.6031 36.1849 51.6031 38.2921C51.6031 45.7048 47.0895 47.3372 42.7932 47.8149C43.4852 48.4138 44.1018 49.5884 44.1018 51.3889C44.1018 53.9713 44.0794 56.0497 44.0794 56.6854C44.0794 57.199 44.4267 57.8008 45.4048 57.6113C53.0668 55.0564 58.5882 47.8246 58.5882 39.3C58.5882 28.6408 49.9498 20 39.2942 20Z" fill="white"/>
<path d="M27.2347 47.488C27.1927 47.5841 27.0427 47.613 26.9065 47.5471C26.7675 47.4839 26.6894 47.3527 26.7345 47.2561C26.7758 47.1571 26.9257 47.1295 27.0644 47.196C27.2036 47.259 27.283 47.3914 27.2347 47.488ZM28.177 48.3378C28.0856 48.4235 27.907 48.3837 27.7858 48.2484C27.6605 48.1134 27.6371 47.933 27.7297 47.8459C27.8239 47.7604 27.9972 47.8004 28.1228 47.9355C28.248 48.0721 28.2724 48.2514 28.1768 48.338L28.177 48.3378ZM28.8234 49.4251C28.706 49.5076 28.514 49.4303 28.3954 49.2581C28.2781 49.086 28.2781 48.8795 28.398 48.7967C28.517 48.714 28.706 48.7884 28.8261 48.9592C28.9433 49.1343 28.9433 49.3409 28.8233 49.4253L28.8234 49.4251ZM29.9165 50.6845C29.8115 50.8014 29.588 50.7702 29.4242 50.6104C29.2569 50.4543 29.2101 50.2327 29.3154 50.1156C29.4217 49.9984 29.6466 50.0314 29.8115 50.1898C29.9778 50.3456 30.0286 50.5688 29.9167 50.6845H29.9165ZM31.3293 51.1097C31.2832 51.2613 31.0678 51.3302 30.8508 51.2658C30.6342 51.1995 30.4924 51.0218 30.5361 50.8686C30.5812 50.7159 30.7975 50.6441 31.0161 50.7131C31.2324 50.7791 31.3745 50.9554 31.3295 51.1097H31.3293ZM32.9374 51.29C32.9428 51.4497 32.7588 51.5822 32.531 51.585C32.3019 51.5901 32.1167 51.4608 32.1143 51.3038C32.1143 51.1425 32.2941 51.0113 32.523 51.0075C32.7508 51.003 32.9374 51.1313 32.9374 51.29ZM34.5169 51.2288C34.5443 51.3846 34.3859 51.5446 34.1598 51.5872C33.9375 51.6282 33.7317 51.532 33.7033 51.3776C33.6756 51.2178 33.837 51.0579 34.0589 51.0165C34.2854 50.9767 34.4881 51.0704 34.5169 51.2288Z" fill="white"/>
</g>
<g clip-path="url(#clip1_21_6355)">
<path fill-rule="evenodd" clip-rule="evenodd" d="M39.2942 77.647C28.6397 77.647 20 86.2878 20 96.947C20 105.474 25.5284 112.709 33.1946 115.261C34.1588 115.439 34.5129 114.842 34.5129 114.332C34.5129 113.872 34.4949 112.352 34.4867 110.739C29.1189 111.907 27.9863 108.462 27.9863 108.462C27.1086 106.231 25.844 105.638 25.844 105.638C24.0935 104.44 25.976 104.465 25.976 104.465C27.9135 104.601 28.9337 106.454 28.9337 106.454C30.6545 109.404 33.4473 108.551 34.5483 108.058C34.7214 106.811 35.2215 105.959 35.7733 105.477C31.4878 104.989 26.9827 103.334 26.9827 95.9391C26.9827 93.832 27.7364 92.1102 28.9708 90.7587C28.7704 90.2725 28.1101 88.3096 29.1576 85.6511C29.1576 85.6511 30.7778 85.1324 34.4649 87.6295C36.0039 87.2017 37.6545 86.9874 39.2942 86.9801C40.9339 86.9874 42.5857 87.2017 44.1277 87.6295C47.8104 85.1324 49.4283 85.6511 49.4283 85.6511C50.4785 88.3096 49.8178 90.2725 49.6175 90.7587C50.8545 92.1102 51.6031 93.8319 51.6031 95.9391C51.6031 103.352 47.0895 104.984 42.7932 105.462C43.4852 106.061 44.1018 107.235 44.1018 109.036C44.1018 111.618 44.0794 113.697 44.0794 114.332C44.0794 114.846 44.4267 115.448 45.4048 115.258C53.0668 112.703 58.5882 105.472 58.5882 96.947C58.5882 86.2878 49.9498 77.647 39.2942 77.647Z" fill="#EF855B"/>
<path d="M27.2347 105.135C27.1927 105.231 27.0427 105.26 26.9065 105.194C26.7675 105.131 26.6894 105 26.7345 104.903C26.7758 104.804 26.9257 104.776 27.0644 104.843C27.2036 104.906 27.283 105.038 27.2347 105.135ZM28.177 105.985C28.0856 106.07 27.907 106.031 27.7858 105.895C27.6605 105.76 27.6371 105.58 27.7297 105.493C27.8239 105.407 27.9972 105.447 28.1228 105.583C28.248 105.719 28.2724 105.898 28.1768 105.985L28.177 105.985ZM28.8234 107.072C28.706 107.155 28.514 107.077 28.3954 106.905C28.2781 106.733 28.2781 106.526 28.398 106.444C28.517 106.361 28.706 106.435 28.8261 106.606C28.9433 106.781 28.9433 106.988 28.8233 107.072L28.8234 107.072ZM29.9165 108.331C29.8115 108.448 29.588 108.417 29.4242 108.257C29.2569 108.101 29.2101 107.88 29.3154 107.763C29.4217 107.645 29.6466 107.678 29.8115 107.837C29.9778 107.993 30.0286 108.216 29.9167 108.331H29.9165ZM31.3293 108.757C31.2832 108.908 31.0678 108.977 30.8508 108.913C30.6342 108.846 30.4924 108.669 30.5361 108.516C30.5812 108.363 30.7975 108.291 31.0161 108.36C31.2324 108.426 31.3745 108.602 31.3295 108.757H31.3293ZM32.9374 108.937C32.9428 109.097 32.7588 109.229 32.531 109.232C32.3019 109.237 32.1167 109.108 32.1143 108.951C32.1143 108.789 32.2941 108.658 32.523 108.654C32.7508 108.65 32.9374 108.778 32.9374 108.937ZM34.5169 108.876C34.5443 109.032 34.3859 109.192 34.1598 109.234C33.9375 109.275 33.7317 109.179 33.7033 109.025C33.6756 108.865 33.837 108.705 34.0589 108.663C34.2854 108.624 34.4881 108.717 34.5169 108.876Z" fill="#EF855B"/>
</g>
<rect x="0.5" y="0.5" width="79" height="134.294" rx="4.5" stroke="#7B61FF" stroke-dasharray="10 5"/>
<defs>
<clipPath id="clip0_21_6355">
<rect width="40" height="37.6471" fill="white" transform="translate(20 20)"/>
</clipPath>
<clipPath id="clip1_21_6355">
<rect width="40" height="37.6471" fill="white" transform="translate(20 77.647)"/>
</clipPath>
</defs>
</svg>
