<svg width="80" height="140" viewBox="0 0 80 140" fill="none" xmlns="http://www.w3.org/2000/svg">
<path d="M54.0783 54.0867H48.155V44.805C48.155 42.5917 48.11 39.7433 45.0683 39.7433C41.98 39.7433 41.5083 42.1517 41.5083 44.6417V54.0867H35.585V35H41.275V37.6017H41.3517C42.1467 36.1017 44.08 34.5183 46.9683 34.5183C52.97 34.5183 54.08 38.4683 54.08 43.61V54.0867H54.0783ZM28.895 32.3883C26.9883 32.3883 25.4567 30.845 25.4567 28.9467C25.4567 27.05 26.99 25.5083 28.895 25.5083C30.795 25.5083 32.335 27.05 32.335 28.9467C32.335 30.845 30.7933 32.3883 28.895 32.3883ZM31.865 54.0867H25.925V35H31.865V54.0867ZM57.0417 20H22.9517C21.32 20 20 21.29 20 22.8817V57.1183C20 58.7117 21.32 60 22.9517 60H57.0367C58.6667 60 60 58.7117 60 57.1183V22.8817C60 21.29 58.6667 20 57.0367 20H57.0417Z" fill="white"/>
<path d="M54.0783 114.087H48.155V104.805C48.155 102.592 48.11 99.7433 45.0683 99.7433C41.98 99.7433 41.5083 102.152 41.5083 104.642V114.087H35.585V95H41.275V97.6017H41.3517C42.1467 96.1017 44.08 94.5183 46.9683 94.5183C52.97 94.5183 54.08 98.4683 54.08 103.61V114.087H54.0783ZM28.895 92.3883C26.9883 92.3883 25.4567 90.845 25.4567 88.9467C25.4567 87.05 26.99 85.5083 28.895 85.5083C30.795 85.5083 32.335 87.05 32.335 88.9467C32.335 90.845 30.7933 92.3883 28.895 92.3883ZM31.865 114.087H25.925V95H31.865V114.087ZM57.0417 80H22.9517C21.32 80 20 81.29 20 82.8817V117.118C20 118.712 21.32 120 22.9517 120H57.0367C58.6667 120 60 118.712 60 117.118V82.8817C60 81.29 58.6667 80 57.0367 80H57.0417Z" fill="#EF855B"/>
<rect x="0.5" y="0.5" width="79" height="139" rx="4.5" stroke="#7B61FF" stroke-dasharray="10 5"/>
</svg>
