<svg width="40" height="22" viewBox="0 0 40 22" fill="none" xmlns="http://www.w3.org/2000/svg">
<path d="M22.5624 11.0002C22.5624 17.0752 17.5116 22 11.2814 22C5.05122 22 0 17.0741 0 11.0002C0 4.92625 5.05083 0 11.2814 0C17.512 0 22.5624 4.92514 22.5624 11.0002ZM34.9381 11.0002C34.9381 16.7185 32.4126 21.356 29.2974 21.356C26.1821 21.356 23.6567 16.7185 23.6567 11.0002C23.6567 5.28184 26.1817 0.644362 29.297 0.644362C32.4123 0.644362 34.9377 5.28036 34.9377 11.0002H34.9381ZM40 11.0002C40 16.1224 39.1119 20.2774 38.0162 20.2774C36.9204 20.2774 36.0327 16.1235 36.0327 11.0002C36.0327 5.87684 36.9207 1.723 38.0162 1.723C39.1116 1.723 40 5.87647 40 11.0002Z" fill="white"/>
</svg>
