<svg width="67" height="65" viewBox="0 0 67 65" fill="none" xmlns="http://www.w3.org/2000/svg">
<path d="M30.7 43H25.57L16.99 30.01V43H11.86V21.94H16.99L25.57 34.99V21.94H30.7V43ZM46.2086 43L37.5986 33.46V43H34.8686V22.09H37.5986V31.78L46.2386 22.09H49.6886L40.2086 32.56L49.7786 43H46.2086ZM53.6976 43.18C53.1776 43.18 52.7376 43 52.3776 42.64C52.0176 42.28 51.8376 41.84 51.8376 41.32C51.8376 40.8 52.0176 40.36 52.3776 40C52.7376 39.64 53.1776 39.46 53.6976 39.46C54.1976 39.46 54.6176 39.64 54.9576 40C55.3176 40.36 55.4976 40.8 55.4976 41.32C55.4976 41.84 55.3176 42.28 54.9576 42.64C54.6176 43 54.1976 43.18 53.6976 43.18Z" fill="white"/>
</svg>
